<?xml version="1.0" standalone="no"?>
<!DOCTYPE svg PUBLIC "-//W3C//DTD SVG 20010904//EN"
 "http://www.w3.org/TR/2001/REC-SVG-20010904/DTD/svg10.dtd">
<svg version="1.0" xmlns="http://www.w3.org/2000/svg"
 width="240.000000pt" height="240.000000pt" viewBox="0 0 240.000000 240.000000"
 preserveAspectRatio="xMidYMid meet">

<g transform="translate(0.000000,240.000000) scale(0.100000,-0.100000)"
fill="#000000" stroke="none">
<path d="M1595 2170 c-254 -34 -438 -259 -422 -517 6 -96 17 -90 -123 -68
-314 48 -584 187 -804 414 -87 90 -83 90 -117 1 -64 -169 -18 -371 117 -508
l62 -64 -43 6 c-24 3 -70 15 -102 26 -31 11 -59 20 -60 20 -10 0 0 -88 17
-142 46 -148 171 -278 308 -318 23 -7 42 -16 42 -20 0 -12 -113 -21 -159 -14
-22 4 -41 4 -41 0 0 -28 73 -141 124 -191 76 -75 142 -111 248 -134 l82 -17
-48 -33 c-75 -52 -224 -118 -316 -141 -51 -13 -136 -24 -212 -27 -70 -3 -126
-9 -123 -13 9 -14 199 -102 281 -130 349 -118 761 -92 1084 70 428 214 719
658 760 1157 5 70 9 135 7 144 -1 8 27 40 64 72 59 50 169 174 169 191 0 3
-17 -1 -37 -10 -39 -16 -187 -54 -212 -54 -7 0 8 17 35 39 27 21 63 58 80 82
36 50 77 129 71 135 -2 2 -37 -11 -78 -30 -41 -19 -106 -44 -146 -56 l-72 -22
-65 50 c-85 65 -158 93 -281 106 -16 2 -57 0 -90 -4z"/>
</g>
</svg>
